<svg width="499" height="120" viewBox="0 0 499 120" fill="none" xmlns="http://www.w3.org/2000/svg">
<g filter="url(#filter0_b_918_100)">
<rect width="499" height="120" fill="white" fill-opacity="0.13"/>
<path d="M56.9 55.468C55.028 55.468 53.456 55.108 52.184 54.388C50.912 53.644 49.952 52.696 49.304 51.544C48.656 50.368 48.332 49.168 48.332 47.944C48.332 46.936 48.524 46.036 48.908 45.244C49.292 44.428 49.784 43.72 50.384 43.12C51.008 42.52 51.644 42.052 52.292 41.716C51.428 41.068 50.696 40.276 50.096 39.34C49.52 38.38 49.232 37.228 49.232 35.884C49.232 33.988 49.892 32.428 51.212 31.204C52.532 29.98 54.464 29.368 57.008 29.368C58.76 29.368 60.212 29.668 61.364 30.268C62.54 30.844 63.416 31.624 63.992 32.608C64.568 33.592 64.856 34.696 64.856 35.92C64.856 37.408 64.508 38.644 63.812 39.628C63.14 40.588 62.312 41.38 61.328 42.004C61.952 42.316 62.6 42.748 63.272 43.3C63.968 43.828 64.544 44.5 65 45.316C65.48 46.108 65.72 47.08 65.72 48.232C65.72 49.48 65.372 50.656 64.676 51.76C64.004 52.864 63.008 53.764 61.688 54.46C60.368 55.132 58.772 55.468 56.9 55.468ZM57.008 51.904C58.52 51.904 59.624 51.604 60.32 51.004C61.016 50.38 61.364 49.54 61.364 48.484C61.364 47.668 61.196 46.984 60.86 46.432C60.524 45.88 59.96 45.376 59.168 44.92C58.4 44.464 57.344 44.02 56 43.588C54.968 43.996 54.152 44.512 53.552 45.136C52.976 45.76 52.688 46.744 52.688 48.088C52.688 48.808 52.82 49.456 53.084 50.032C53.348 50.584 53.804 51.04 54.452 51.4C55.1 51.736 55.952 51.904 57.008 51.904ZM57.584 40.348C58.544 39.988 59.3 39.484 59.852 38.836C60.404 38.164 60.68 37.252 60.68 36.1C60.68 35.092 60.404 34.288 59.852 33.688C59.324 33.064 58.388 32.752 57.044 32.752C55.628 32.752 54.656 33.028 54.128 33.58C53.624 34.132 53.372 34.852 53.372 35.74C53.372 36.796 53.696 37.684 54.344 38.404C54.992 39.124 56.072 39.772 57.584 40.348ZM77.7302 55.468C76.4582 55.468 75.2942 55.276 74.2382 54.892C73.1822 54.508 72.2462 53.848 71.4302 52.912C70.6382 51.952 70.0142 50.62 69.5582 48.916C69.1022 47.212 68.8742 45.028 68.8742 42.364C68.8742 39.748 69.1022 37.6 69.5582 35.92C70.0142 34.216 70.6382 32.896 71.4302 31.96C72.2462 31 73.1822 30.328 74.2382 29.944C75.2942 29.56 76.4462 29.368 77.6942 29.368C78.9662 29.368 80.1302 29.56 81.1862 29.944C82.2662 30.328 83.2022 31 83.9942 31.96C84.8102 32.896 85.4342 34.216 85.8662 35.92C86.3222 37.6 86.5502 39.76 86.5502 42.4C86.5502 45.04 86.3222 47.212 85.8662 48.916C85.4342 50.62 84.8102 51.952 83.9942 52.912C83.2022 53.848 82.2662 54.508 81.1862 54.892C80.1302 55.276 78.9782 55.468 77.7302 55.468ZM77.7302 51.832C78.7382 51.832 79.5782 51.58 80.2502 51.076C80.9222 50.572 81.4262 49.636 81.7622 48.268C82.0982 46.9 82.2662 44.944 82.2662 42.4C82.2662 40.432 82.1582 38.836 81.9422 37.612C81.7502 36.364 81.4502 35.416 81.0422 34.768C80.6582 34.096 80.1782 33.64 79.6022 33.4C79.0502 33.136 78.4142 33.004 77.6942 33.004C76.9982 33.004 76.3622 33.124 75.7862 33.364C75.2342 33.604 74.7542 34.06 74.3462 34.732C73.9622 35.38 73.6742 36.316 73.4822 37.54C73.2902 38.764 73.1942 40.36 73.1942 42.328C73.1942 44.872 73.3622 46.828 73.6982 48.196C74.0342 49.564 74.5382 50.512 75.2102 51.04C75.9062 51.568 76.7462 51.832 77.7302 51.832ZM105.768 55L96.0838 41.968L105.084 29.836H110.16L100.764 41.716V41.932L110.952 55H105.768ZM91.7638 55L91.8718 42.22L91.7638 29.836H95.9758V55H91.7638ZM119.923 54.316V46.216H112.039V42.688H119.923V34.696H123.559V42.688H131.515V46.216H123.559V54.316H119.923Z" fill="white"/>
<path d="M58.2266 91L56.8203 87.375H52.2422L50.8438 91H49.5L53.9688 79.5312H55.1641L59.6016 91H58.2266ZM56.4219 86.1953L55.0859 82.5938C55.0547 82.5 55.0026 82.3464 54.9297 82.1328C54.862 81.9193 54.7917 81.6979 54.7188 81.4688C54.6458 81.2396 54.5859 81.0547 54.5391 80.9141C54.487 81.1276 54.4297 81.3411 54.3672 81.5547C54.3099 81.763 54.2526 81.9583 54.1953 82.1406C54.138 82.3177 54.0885 82.4688 54.0469 82.5938L52.6875 86.1953H56.4219ZM64.4219 91.1562C63.651 91.1562 62.9714 90.9974 62.3828 90.6797C61.7943 90.362 61.3359 89.8776 61.0078 89.2266C60.6797 88.5755 60.5156 87.7552 60.5156 86.7656C60.5156 85.7292 60.6875 84.8828 61.0312 84.2266C61.3802 83.5651 61.8594 83.0755 62.4688 82.7578C63.0781 82.4401 63.7708 82.2812 64.5469 82.2812C64.974 82.2812 65.3854 82.3255 65.7812 82.4141C66.1823 82.4974 66.5104 82.6042 66.7656 82.7344L66.375 83.8203C66.1146 83.7161 65.8125 83.6224 65.4688 83.5391C65.1302 83.4557 64.8125 83.4141 64.5156 83.4141C63.9219 83.4141 63.4271 83.5417 63.0312 83.7969C62.6406 84.0521 62.3464 84.4271 62.1484 84.9219C61.9557 85.4167 61.8594 86.026 61.8594 86.75C61.8594 87.4427 61.9531 88.0339 62.1406 88.5234C62.3333 89.013 62.6172 89.388 62.9922 89.6484C63.3724 89.9036 63.8464 90.0312 64.4141 90.0312C64.8672 90.0312 65.276 89.9844 65.6406 89.8906C66.0052 89.7917 66.3359 89.6771 66.6328 89.5469V90.7031C66.3464 90.849 66.026 90.9609 65.6719 91.0391C65.3229 91.1172 64.9062 91.1562 64.4219 91.1562ZM71.4297 90.0938C71.6432 90.0938 71.862 90.0755 72.0859 90.0391C72.3099 90.0026 72.4922 89.9583 72.6328 89.9062V90.9141C72.4818 90.9818 72.2708 91.0391 72 91.0859C71.7344 91.1328 71.474 91.1562 71.2188 91.1562C70.7656 91.1562 70.3542 91.0781 69.9844 90.9219C69.6146 90.7604 69.3177 90.4896 69.0938 90.1094C68.875 89.7292 68.7656 89.2031 68.7656 88.5312V83.4531H67.5469V82.8203L68.7734 82.3125L69.2891 80.4531H70.0703V82.4375H72.5781V83.4531H70.0703V88.4922C70.0703 89.0286 70.1927 89.4297 70.4375 89.6953C70.6875 89.9609 71.0182 90.0938 71.4297 90.0938ZM75.6641 82.4375V91H74.3672V82.4375H75.6641ZM75.0312 79.2344C75.2448 79.2344 75.4271 79.3047 75.5781 79.4453C75.7344 79.5807 75.8125 79.7943 75.8125 80.0859C75.8125 80.3724 75.7344 80.5859 75.5781 80.7266C75.4271 80.8672 75.2448 80.9375 75.0312 80.9375C74.8073 80.9375 74.6198 80.8672 74.4688 80.7266C74.3229 80.5859 74.25 80.3724 74.25 80.0859C74.25 79.7943 74.3229 79.5807 74.4688 79.4453C74.6198 79.3047 74.8073 79.2344 75.0312 79.2344ZM80.2969 91L77.0469 82.4375H78.4375L80.3203 87.6172C80.4505 87.9714 80.5833 88.362 80.7188 88.7891C80.8542 89.2161 80.9479 89.5599 81 89.8203H81.0547C81.1172 89.5599 81.2214 89.2161 81.3672 88.7891C81.513 88.3568 81.6458 87.9661 81.7656 87.6172L83.6484 82.4375H85.0391L81.7812 91H80.2969ZM89.7109 82.2812C90.4401 82.2812 91.0651 82.4427 91.5859 82.7656C92.1068 83.0885 92.5052 83.5417 92.7812 84.125C93.0573 84.7031 93.1953 85.3802 93.1953 86.1562V86.9609H87.2812C87.2969 87.9661 87.5469 88.7318 88.0312 89.2578C88.5156 89.7839 89.1979 90.0469 90.0781 90.0469C90.6198 90.0469 91.099 89.9974 91.5156 89.8984C91.9323 89.7995 92.3646 89.6536 92.8125 89.4609V90.6016C92.3802 90.7943 91.9505 90.9349 91.5234 91.0234C91.1016 91.112 90.6016 91.1562 90.0234 91.1562C89.2005 91.1562 88.4818 90.9896 87.8672 90.6562C87.2578 90.3177 86.7839 89.8229 86.4453 89.1719C86.1068 88.5208 85.9375 87.724 85.9375 86.7812C85.9375 85.8594 86.0911 85.0625 86.3984 84.3906C86.7109 83.7135 87.1484 83.1927 87.7109 82.8281C88.2786 82.4635 88.9453 82.2812 89.7109 82.2812ZM89.6953 83.3438C89.0026 83.3438 88.4505 83.5703 88.0391 84.0234C87.6276 84.4766 87.3828 85.1094 87.3047 85.9219H91.8359C91.8307 85.4115 91.75 84.9635 91.5938 84.5781C91.4427 84.1875 91.2109 83.8854 90.8984 83.6719C90.5859 83.4531 90.1849 83.3438 89.6953 83.3438ZM106.625 82.4375V91H105.562L105.375 89.7969H105.305C105.128 90.0938 104.898 90.3438 104.617 90.5469C104.336 90.75 104.018 90.901 103.664 91C103.315 91.1042 102.943 91.1562 102.547 91.1562C101.87 91.1562 101.302 91.0469 100.844 90.8281C100.385 90.6094 100.039 90.2708 99.8047 89.8125C99.5755 89.3542 99.4609 88.7656 99.4609 88.0469V82.4375H100.773V87.9531C100.773 88.6667 100.935 89.2005 101.258 89.5547C101.581 89.9036 102.073 90.0781 102.734 90.0781C103.37 90.0781 103.875 89.9583 104.25 89.7188C104.63 89.4792 104.904 89.1276 105.07 88.6641C105.237 88.1953 105.32 87.6224 105.32 86.9453V82.4375H106.625ZM114.906 88.6562C114.906 89.2031 114.768 89.6641 114.492 90.0391C114.221 90.4089 113.831 90.6875 113.32 90.875C112.815 91.0625 112.211 91.1562 111.508 91.1562C110.909 91.1562 110.391 91.1094 109.953 91.0156C109.516 90.9219 109.133 90.7891 108.805 90.6172V89.4219C109.154 89.5938 109.57 89.75 110.055 89.8906C110.539 90.0312 111.034 90.1016 111.539 90.1016C112.279 90.1016 112.815 89.9818 113.148 89.7422C113.482 89.5026 113.648 89.1771 113.648 88.7656C113.648 88.5312 113.581 88.3255 113.445 88.1484C113.315 87.9661 113.094 87.7917 112.781 87.625C112.469 87.4531 112.036 87.2656 111.484 87.0625C110.938 86.8542 110.464 86.6484 110.062 86.4453C109.667 86.237 109.359 85.9844 109.141 85.6875C108.927 85.3906 108.82 85.0052 108.82 84.5312C108.82 83.8073 109.112 83.2526 109.695 82.8672C110.284 82.4766 111.055 82.2812 112.008 82.2812C112.523 82.2812 113.005 82.3333 113.453 82.4375C113.906 82.5365 114.328 82.6719 114.719 82.8438L114.281 83.8828C113.927 83.7318 113.549 83.6042 113.148 83.5C112.747 83.3958 112.339 83.3438 111.922 83.3438C111.323 83.3438 110.862 83.4427 110.539 83.6406C110.221 83.8385 110.062 84.1094 110.062 84.4531C110.062 84.7188 110.135 84.9375 110.281 85.1094C110.432 85.2812 110.672 85.4427 111 85.5938C111.328 85.7448 111.76 85.9219 112.297 86.125C112.833 86.3229 113.297 86.5286 113.688 86.7422C114.078 86.9505 114.378 87.2057 114.586 87.5078C114.799 87.8047 114.906 88.1875 114.906 88.6562ZM120.289 82.2812C121.018 82.2812 121.643 82.4427 122.164 82.7656C122.685 83.0885 123.083 83.5417 123.359 84.125C123.635 84.7031 123.773 85.3802 123.773 86.1562V86.9609H117.859C117.875 87.9661 118.125 88.7318 118.609 89.2578C119.094 89.7839 119.776 90.0469 120.656 90.0469C121.198 90.0469 121.677 89.9974 122.094 89.8984C122.51 89.7995 122.943 89.6536 123.391 89.4609V90.6016C122.958 90.7943 122.529 90.9349 122.102 91.0234C121.68 91.112 121.18 91.1562 120.602 91.1562C119.779 91.1562 119.06 90.9896 118.445 90.6562C117.836 90.3177 117.362 89.8229 117.023 89.1719C116.685 88.5208 116.516 87.724 116.516 86.7812C116.516 85.8594 116.669 85.0625 116.977 84.3906C117.289 83.7135 117.727 83.1927 118.289 82.8281C118.857 82.4635 119.523 82.2812 120.289 82.2812ZM120.273 83.3438C119.581 83.3438 119.029 83.5703 118.617 84.0234C118.206 84.4766 117.961 85.1094 117.883 85.9219H122.414C122.409 85.4115 122.328 84.9635 122.172 84.5781C122.021 84.1875 121.789 83.8854 121.477 83.6719C121.164 83.4531 120.763 83.3438 120.273 83.3438ZM129.867 82.2812C130.039 82.2812 130.219 82.2917 130.406 82.3125C130.594 82.3281 130.76 82.3516 130.906 82.3828L130.742 83.5859C130.602 83.5495 130.445 83.5208 130.273 83.5C130.102 83.4792 129.94 83.4688 129.789 83.4688C129.445 83.4688 129.12 83.5391 128.812 83.6797C128.51 83.8151 128.245 84.013 128.016 84.2734C127.786 84.5286 127.607 84.8385 127.477 85.2031C127.346 85.5625 127.281 85.9635 127.281 86.4062V91H125.977V82.4375H127.055L127.195 84.0156H127.25C127.427 83.6979 127.641 83.4089 127.891 83.1484C128.141 82.8828 128.43 82.6719 128.758 82.5156C129.091 82.3594 129.461 82.2812 129.867 82.2812Z" fill="#D7D7D7"/>
<path d="M205.764 55V51.868C205.764 51.868 206.34 51.232 207.492 49.96C208.668 48.688 210.324 46.768 212.46 44.2C213.948 42.424 215.16 40.84 216.096 39.448C217.056 38.032 217.536 36.712 217.536 35.488C217.536 34.768 217.32 34.192 216.888 33.76C216.48 33.328 215.76 33.112 214.728 33.112C214.008 33.112 213.204 33.232 212.316 33.472C211.452 33.712 210.564 34.024 209.652 34.408C208.764 34.792 207.936 35.236 207.168 35.74L205.476 32.608C205.908 32.248 206.556 31.816 207.42 31.312C208.308 30.784 209.328 30.328 210.48 29.944C211.632 29.56 212.832 29.368 214.08 29.368C215.544 29.368 216.852 29.632 218.004 30.16C219.156 30.664 220.056 31.396 220.704 32.356C221.376 33.316 221.712 34.456 221.712 35.776C221.712 36.808 221.484 37.84 221.028 38.872C220.572 39.904 220.008 40.924 219.336 41.932C218.664 42.916 217.968 43.864 217.248 44.776C216.84 45.28 216.384 45.832 215.88 46.432C215.4 47.032 214.92 47.62 214.44 48.196C213.96 48.772 213.516 49.3 213.108 49.78C212.724 50.26 212.412 50.644 212.172 50.932C211.932 51.196 211.812 51.328 211.812 51.328V51.544L222.252 51.328V55H205.764ZM230.628 55.288L226.2 54.928L236.712 33.472V33.256L224.508 33.508V29.836H241.14V32.428L230.628 55.288ZM259.041 55L249.357 41.968L258.357 29.836H263.433L254.037 41.716V41.932L264.225 55H259.041ZM245.037 55L245.145 42.22L245.037 29.836H249.249V55H245.037ZM273.197 54.316V46.216H265.313V42.688H273.197V34.696H276.833V42.688H284.789V46.216H276.833V54.316H273.197Z" fill="white"/>
<path d="M220.727 91L219.32 87.375H214.742L213.344 91H212L216.469 79.5312H217.664L222.102 91H220.727ZM218.922 86.1953L217.586 82.5938C217.555 82.5 217.503 82.3464 217.43 82.1328C217.362 81.9193 217.292 81.6979 217.219 81.4688C217.146 81.2396 217.086 81.0547 217.039 80.9141C216.987 81.1276 216.93 81.3411 216.867 81.5547C216.81 81.763 216.753 81.9583 216.695 82.1406C216.638 82.3177 216.589 82.4688 216.547 82.5938L215.188 86.1953H218.922ZM227.383 82.2812C227.555 82.2812 227.734 82.2917 227.922 82.3125C228.109 82.3281 228.276 82.3516 228.422 82.3828L228.258 83.5859C228.117 83.5495 227.961 83.5208 227.789 83.5C227.617 83.4792 227.456 83.4688 227.305 83.4688C226.961 83.4688 226.635 83.5391 226.328 83.6797C226.026 83.8151 225.76 84.013 225.531 84.2734C225.302 84.5286 225.122 84.8385 224.992 85.2031C224.862 85.5625 224.797 85.9635 224.797 86.4062V91H223.492V82.4375H224.57L224.711 84.0156H224.766C224.943 83.6979 225.156 83.4089 225.406 83.1484C225.656 82.8828 225.945 82.6719 226.273 82.5156C226.607 82.3594 226.977 82.2812 227.383 82.2812ZM232.805 90.0938C233.018 90.0938 233.237 90.0755 233.461 90.0391C233.685 90.0026 233.867 89.9583 234.008 89.9062V90.9141C233.857 90.9818 233.646 91.0391 233.375 91.0859C233.109 91.1328 232.849 91.1562 232.594 91.1562C232.141 91.1562 231.729 91.0781 231.359 90.9219C230.99 90.7604 230.693 90.4896 230.469 90.1094C230.25 89.7292 230.141 89.2031 230.141 88.5312V83.4531H228.922V82.8203L230.148 82.3125L230.664 80.4531H231.445V82.4375H233.953V83.4531H231.445V88.4922C231.445 89.0286 231.568 89.4297 231.812 89.6953C232.062 89.9609 232.393 90.0938 232.805 90.0938ZM242.711 90.9844L241.188 86C241.12 85.7865 241.055 85.5781 240.992 85.375C240.935 85.1667 240.88 84.9688 240.828 84.7812C240.781 84.5885 240.737 84.4115 240.695 84.25C240.659 84.0833 240.628 83.9401 240.602 83.8203H240.547C240.526 83.9401 240.497 84.0833 240.461 84.25C240.424 84.4115 240.38 84.5885 240.328 84.7812C240.281 84.974 240.229 85.1771 240.172 85.3906C240.115 85.599 240.049 85.8099 239.977 86.0234L238.383 90.9844H236.922L234.562 82.4219H235.906L237.141 87.1484C237.224 87.4609 237.302 87.7708 237.375 88.0781C237.453 88.3802 237.518 88.6667 237.57 88.9375C237.628 89.2031 237.669 89.4349 237.695 89.6328H237.758C237.789 89.5026 237.823 89.3464 237.859 89.1641C237.901 88.9818 237.945 88.7891 237.992 88.5859C238.044 88.3776 238.099 88.1719 238.156 87.9688C238.214 87.7604 238.271 87.5651 238.328 87.3828L239.906 82.4219H241.305L242.828 87.375C242.906 87.625 242.982 87.8854 243.055 88.1562C243.133 88.4271 243.203 88.6901 243.266 88.9453C243.328 89.1953 243.372 89.4193 243.398 89.6172H243.461C243.482 89.4401 243.521 89.2214 243.578 88.9609C243.635 88.7005 243.701 88.4141 243.773 88.1016C243.852 87.7891 243.932 87.4714 244.016 87.1484L245.266 82.4219H246.586L244.219 90.9844H242.711ZM255.531 86.7031C255.531 87.4062 255.44 88.0339 255.258 88.5859C255.076 89.138 254.812 89.6042 254.469 89.9844C254.125 90.3646 253.708 90.6562 253.219 90.8594C252.734 91.0573 252.185 91.1562 251.57 91.1562C250.997 91.1562 250.471 91.0573 249.992 90.8594C249.518 90.6562 249.107 90.3646 248.758 89.9844C248.414 89.6042 248.146 89.138 247.953 88.5859C247.766 88.0339 247.672 87.4062 247.672 86.7031C247.672 85.7656 247.831 84.9688 248.148 84.3125C248.466 83.651 248.919 83.1484 249.508 82.8047C250.102 82.4557 250.807 82.2812 251.625 82.2812C252.406 82.2812 253.089 82.4557 253.672 82.8047C254.26 83.1536 254.716 83.6589 255.039 84.3203C255.367 84.9766 255.531 85.7708 255.531 86.7031ZM249.016 86.7031C249.016 87.3906 249.107 87.987 249.289 88.4922C249.471 88.9974 249.753 89.388 250.133 89.6641C250.513 89.9401 251.003 90.0781 251.602 90.0781C252.195 90.0781 252.682 89.9401 253.062 89.6641C253.448 89.388 253.732 88.9974 253.914 88.4922C254.096 87.987 254.188 87.3906 254.188 86.7031C254.188 86.0208 254.096 85.4323 253.914 84.9375C253.732 84.4375 253.451 84.0521 253.07 83.7812C252.69 83.5104 252.198 83.375 251.594 83.375C250.703 83.375 250.049 83.6693 249.633 84.2578C249.221 84.8464 249.016 85.6615 249.016 86.7031ZM261.664 82.2812C261.836 82.2812 262.016 82.2917 262.203 82.3125C262.391 82.3281 262.557 82.3516 262.703 82.3828L262.539 83.5859C262.398 83.5495 262.242 83.5208 262.07 83.5C261.898 83.4792 261.737 83.4688 261.586 83.4688C261.242 83.4688 260.917 83.5391 260.609 83.6797C260.307 83.8151 260.042 84.013 259.812 84.2734C259.583 84.5286 259.404 84.8385 259.273 85.2031C259.143 85.5625 259.078 85.9635 259.078 86.4062V91H257.773V82.4375H258.852L258.992 84.0156H259.047C259.224 83.6979 259.438 83.4089 259.688 83.1484C259.938 82.8828 260.227 82.6719 260.555 82.5156C260.888 82.3594 261.258 82.2812 261.664 82.2812ZM265.609 78.8438V85.1562C265.609 85.3646 265.602 85.6198 265.586 85.9219C265.57 86.2188 265.557 86.4818 265.547 86.7109H265.602C265.711 86.5755 265.87 86.375 266.078 86.1094C266.292 85.8438 266.471 85.6302 266.617 85.4688L269.461 82.4375H270.984L267.539 86.0938L271.234 91H269.672L266.648 86.9453L265.609 87.8984V91H264.32V78.8438H265.609ZM278.266 88.6562C278.266 89.2031 278.128 89.6641 277.852 90.0391C277.581 90.4089 277.19 90.6875 276.68 90.875C276.174 91.0625 275.57 91.1562 274.867 91.1562C274.268 91.1562 273.75 91.1094 273.312 91.0156C272.875 90.9219 272.492 90.7891 272.164 90.6172V89.4219C272.513 89.5938 272.93 89.75 273.414 89.8906C273.898 90.0312 274.393 90.1016 274.898 90.1016C275.638 90.1016 276.174 89.9818 276.508 89.7422C276.841 89.5026 277.008 89.1771 277.008 88.7656C277.008 88.5312 276.94 88.3255 276.805 88.1484C276.674 87.9661 276.453 87.7917 276.141 87.625C275.828 87.4531 275.396 87.2656 274.844 87.0625C274.297 86.8542 273.823 86.6484 273.422 86.4453C273.026 86.237 272.719 85.9844 272.5 85.6875C272.286 85.3906 272.18 85.0052 272.18 84.5312C272.18 83.8073 272.471 83.2526 273.055 82.8672C273.643 82.4766 274.414 82.2812 275.367 82.2812C275.883 82.2812 276.365 82.3333 276.812 82.4375C277.266 82.5365 277.688 82.6719 278.078 82.8438L277.641 83.8828C277.286 83.7318 276.909 83.6042 276.508 83.5C276.107 83.3958 275.698 83.3438 275.281 83.3438C274.682 83.3438 274.221 83.4427 273.898 83.6406C273.581 83.8385 273.422 84.1094 273.422 84.4531C273.422 84.7188 273.495 84.9375 273.641 85.1094C273.792 85.2812 274.031 85.4427 274.359 85.5938C274.688 85.7448 275.12 85.9219 275.656 86.125C276.193 86.3229 276.656 86.5286 277.047 86.7422C277.438 86.9505 277.737 87.2057 277.945 87.5078C278.159 87.8047 278.266 88.1875 278.266 88.6562Z" fill="#D7D7D7"/>
<path d="M366.864 55.468C365.736 55.468 364.692 55.36 363.732 55.144C362.796 54.952 361.956 54.724 361.212 54.46C360.468 54.172 359.844 53.908 359.34 53.668C358.86 53.428 358.536 53.26 358.368 53.164L359.772 50.068C359.988 50.14 360.36 50.272 360.888 50.464C361.416 50.656 362.04 50.86 362.76 51.076C363.48 51.268 364.224 51.436 364.992 51.58C365.784 51.724 366.564 51.796 367.332 51.796C368.628 51.796 369.504 51.496 369.96 50.896C370.44 50.272 370.68 49.336 370.68 48.088C370.68 46.336 370.32 45.124 369.6 44.452C368.88 43.78 367.776 43.444 366.288 43.444H362.292V40.024C363.78 39.904 365.016 39.796 366 39.7C367.008 39.58 367.8 39.412 368.376 39.196C368.976 38.98 369.396 38.644 369.636 38.188C369.9 37.708 370.032 37.084 370.032 36.316C370.032 35.668 369.972 35.128 369.852 34.696C369.732 34.264 369.576 33.952 369.384 33.76C369.12 33.496 368.664 33.304 368.016 33.184C367.392 33.064 366.612 33.004 365.676 33.004C365.244 33.004 364.8 33.016 364.344 33.04C363.888 33.064 363.336 33.112 362.688 33.184C362.064 33.256 361.224 33.352 360.168 33.472L359.7 30.088C360.228 29.944 360.852 29.824 361.572 29.728C362.316 29.608 363.072 29.524 363.84 29.476C364.632 29.404 365.328 29.368 365.928 29.368C367.536 29.368 368.964 29.572 370.212 29.98C371.484 30.388 372.48 31.06 373.2 31.996C373.944 32.932 374.316 34.24 374.316 35.92C374.316 36.904 374.184 37.72 373.92 38.368C373.656 39.016 373.332 39.544 372.948 39.952C372.588 40.36 372.216 40.672 371.832 40.888C371.448 41.104 371.124 41.272 370.86 41.392V41.572C371.34 41.692 371.82 41.896 372.3 42.184C372.78 42.448 373.224 42.82 373.632 43.3C374.064 43.756 374.412 44.356 374.676 45.1C374.94 45.82 375.072 46.72 375.072 47.8C375.072 49.168 374.808 50.44 374.28 51.616C373.752 52.768 372.888 53.704 371.688 54.424C370.488 55.12 368.88 55.468 366.864 55.468ZM380.118 55V51.004H384.978V55H380.118ZM397.046 55.468C395.87 55.468 394.766 55.324 393.734 55.036C392.702 54.772 391.79 54.46 390.998 54.1C390.23 53.74 389.63 53.428 389.198 53.164C388.766 52.876 388.55 52.732 388.55 52.732L389.918 49.636C389.918 49.636 390.158 49.744 390.638 49.96C391.142 50.176 391.778 50.428 392.546 50.716C393.314 51.004 394.13 51.256 394.994 51.472C395.882 51.688 396.734 51.796 397.55 51.796C398.534 51.796 399.278 51.616 399.782 51.256C400.166 51.016 400.442 50.548 400.61 49.852C400.802 49.132 400.898 48.388 400.898 47.62C400.898 46.924 400.814 46.24 400.646 45.568C400.502 44.896 400.286 44.428 399.998 44.164C399.638 43.828 398.942 43.588 397.91 43.444C396.902 43.276 395.534 43.192 393.806 43.192C393.302 43.192 392.774 43.204 392.222 43.228C391.694 43.228 391.238 43.24 390.854 43.264C390.493 43.264 390.313 43.264 390.313 43.264L392.33 29.836H404.138V33.4L395.822 33.256L394.922 39.628C396.41 39.7 397.778 39.868 399.026 40.132C400.274 40.372 401.366 40.768 402.302 41.32C403.238 41.872 403.958 42.64 404.462 43.624C404.99 44.584 405.254 45.832 405.254 47.368C405.254 49.912 404.522 51.904 403.058 53.344C401.594 54.76 399.59 55.468 397.046 55.468ZM424.381 55L414.697 41.968L423.697 29.836H428.773L419.377 41.716V41.932L429.565 55H424.381ZM410.377 55L410.485 42.22L410.377 29.836H414.589V55H410.377ZM438.537 54.316V46.216H430.653V42.688H438.537V34.696H442.173V42.688H450.129V46.216H442.173V54.316H438.537Z" fill="white"/>
<path d="M389.227 91L387.82 87.375H383.242L381.844 91H380.5L384.969 79.5312H386.164L390.602 91H389.227ZM387.422 86.1953L386.086 82.5938C386.055 82.5 386.003 82.3464 385.93 82.1328C385.862 81.9193 385.792 81.6979 385.719 81.4688C385.646 81.2396 385.586 81.0547 385.539 80.9141C385.487 81.1276 385.43 81.3411 385.367 81.5547C385.31 81.763 385.253 81.9583 385.195 82.1406C385.138 82.3177 385.089 82.4688 385.047 82.5938L383.688 86.1953H387.422ZM395.883 82.2812C396.055 82.2812 396.234 82.2917 396.422 82.3125C396.609 82.3281 396.776 82.3516 396.922 82.3828L396.758 83.5859C396.617 83.5495 396.461 83.5208 396.289 83.5C396.117 83.4792 395.956 83.4688 395.805 83.4688C395.461 83.4688 395.135 83.5391 394.828 83.6797C394.526 83.8151 394.26 84.013 394.031 84.2734C393.802 84.5286 393.622 84.8385 393.492 85.2031C393.362 85.5625 393.297 85.9635 393.297 86.4062V91H391.992V82.4375H393.07L393.211 84.0156H393.266C393.443 83.6979 393.656 83.4089 393.906 83.1484C394.156 82.8828 394.445 82.6719 394.773 82.5156C395.107 82.3594 395.477 82.2812 395.883 82.2812ZM401.305 90.0938C401.518 90.0938 401.737 90.0755 401.961 90.0391C402.185 90.0026 402.367 89.9583 402.508 89.9062V90.9141C402.357 90.9818 402.146 91.0391 401.875 91.0859C401.609 91.1328 401.349 91.1562 401.094 91.1562C400.641 91.1562 400.229 91.0781 399.859 90.9219C399.49 90.7604 399.193 90.4896 398.969 90.1094C398.75 89.7292 398.641 89.2031 398.641 88.5312V83.4531H397.422V82.8203L398.648 82.3125L399.164 80.4531H399.945V82.4375H402.453V83.4531H399.945V88.4922C399.945 89.0286 400.068 89.4297 400.312 89.6953C400.562 89.9609 400.893 90.0938 401.305 90.0938ZM405.539 82.4375V91H404.242V82.4375H405.539ZM404.906 79.2344C405.12 79.2344 405.302 79.3047 405.453 79.4453C405.609 79.5807 405.688 79.7943 405.688 80.0859C405.688 80.3724 405.609 80.5859 405.453 80.7266C405.302 80.8672 405.12 80.9375 404.906 80.9375C404.682 80.9375 404.495 80.8672 404.344 80.7266C404.198 80.5859 404.125 80.3724 404.125 80.0859C404.125 79.7943 404.198 79.5807 404.344 79.4453C404.495 79.3047 404.682 79.2344 404.906 79.2344ZM413.828 88.6562C413.828 89.2031 413.69 89.6641 413.414 90.0391C413.143 90.4089 412.753 90.6875 412.242 90.875C411.737 91.0625 411.133 91.1562 410.43 91.1562C409.831 91.1562 409.312 91.1094 408.875 91.0156C408.438 90.9219 408.055 90.7891 407.727 90.6172V89.4219C408.076 89.5938 408.492 89.75 408.977 89.8906C409.461 90.0312 409.956 90.1016 410.461 90.1016C411.201 90.1016 411.737 89.9818 412.07 89.7422C412.404 89.5026 412.57 89.1771 412.57 88.7656C412.57 88.5312 412.503 88.3255 412.367 88.1484C412.237 87.9661 412.016 87.7917 411.703 87.625C411.391 87.4531 410.958 87.2656 410.406 87.0625C409.859 86.8542 409.385 86.6484 408.984 86.4453C408.589 86.237 408.281 85.9844 408.062 85.6875C407.849 85.3906 407.742 85.0052 407.742 84.5312C407.742 83.8073 408.034 83.2526 408.617 82.8672C409.206 82.4766 409.977 82.2812 410.93 82.2812C411.445 82.2812 411.927 82.3333 412.375 82.4375C412.828 82.5365 413.25 82.6719 413.641 82.8438L413.203 83.8828C412.849 83.7318 412.471 83.6042 412.07 83.5C411.669 83.3958 411.26 83.3438 410.844 83.3438C410.245 83.3438 409.784 83.4427 409.461 83.6406C409.143 83.8385 408.984 84.1094 408.984 84.4531C408.984 84.7188 409.057 84.9375 409.203 85.1094C409.354 85.2812 409.594 85.4427 409.922 85.5938C410.25 85.7448 410.682 85.9219 411.219 86.125C411.755 86.3229 412.219 86.5286 412.609 86.7422C413 86.9505 413.299 87.2057 413.508 87.5078C413.721 87.8047 413.828 88.1875 413.828 88.6562ZM418.68 90.0938C418.893 90.0938 419.112 90.0755 419.336 90.0391C419.56 90.0026 419.742 89.9583 419.883 89.9062V90.9141C419.732 90.9818 419.521 91.0391 419.25 91.0859C418.984 91.1328 418.724 91.1562 418.469 91.1562C418.016 91.1562 417.604 91.0781 417.234 90.9219C416.865 90.7604 416.568 90.4896 416.344 90.1094C416.125 89.7292 416.016 89.2031 416.016 88.5312V83.4531H414.797V82.8203L416.023 82.3125L416.539 80.4531H417.32V82.4375H419.828V83.4531H417.32V88.4922C417.32 89.0286 417.443 89.4297 417.688 89.6953C417.938 89.9609 418.268 90.0938 418.68 90.0938ZM427.156 88.6562C427.156 89.2031 427.018 89.6641 426.742 90.0391C426.471 90.4089 426.081 90.6875 425.57 90.875C425.065 91.0625 424.461 91.1562 423.758 91.1562C423.159 91.1562 422.641 91.1094 422.203 91.0156C421.766 90.9219 421.383 90.7891 421.055 90.6172V89.4219C421.404 89.5938 421.82 89.75 422.305 89.8906C422.789 90.0312 423.284 90.1016 423.789 90.1016C424.529 90.1016 425.065 89.9818 425.398 89.7422C425.732 89.5026 425.898 89.1771 425.898 88.7656C425.898 88.5312 425.831 88.3255 425.695 88.1484C425.565 87.9661 425.344 87.7917 425.031 87.625C424.719 87.4531 424.286 87.2656 423.734 87.0625C423.188 86.8542 422.714 86.6484 422.312 86.4453C421.917 86.237 421.609 85.9844 421.391 85.6875C421.177 85.3906 421.07 85.0052 421.07 84.5312C421.07 83.8073 421.362 83.2526 421.945 82.8672C422.534 82.4766 423.305 82.2812 424.258 82.2812C424.773 82.2812 425.255 82.3333 425.703 82.4375C426.156 82.5365 426.578 82.6719 426.969 82.8438L426.531 83.8828C426.177 83.7318 425.799 83.6042 425.398 83.5C424.997 83.3958 424.589 83.3438 424.172 83.3438C423.573 83.3438 423.112 83.4427 422.789 83.6406C422.471 83.8385 422.312 84.1094 422.312 84.4531C422.312 84.7188 422.385 84.9375 422.531 85.1094C422.682 85.2812 422.922 85.4427 423.25 85.5938C423.578 85.7448 424.01 85.9219 424.547 86.125C425.083 86.3229 425.547 86.5286 425.938 86.7422C426.328 86.9505 426.628 87.2057 426.836 87.5078C427.049 87.8047 427.156 88.1875 427.156 88.6562Z" fill="#D7D7D7"/>
</g>
<defs>
<filter id="filter0_b_918_100" x="-4" y="-4" width="507" height="128" filterUnits="userSpaceOnUse" color-interpolation-filters="sRGB">
<feFlood flood-opacity="0" result="BackgroundImageFix"/>
<feGaussianBlur in="BackgroundImage" stdDeviation="2"/>
<feComposite in2="SourceAlpha" operator="in" result="effect1_backgroundBlur_918_100"/>
<feBlend mode="normal" in="SourceGraphic" in2="effect1_backgroundBlur_918_100" result="shape"/>
</filter>
</defs>
</svg>
